<svg width="22" height="23" viewBox="0 0 22 23" fill="none" xmlns="http://www.w3.org/2000/svg">
<path d="M19.7727 8.37267V4.29234C19.7727 3.0251 19.1975 2.51282 17.7685 2.51282H14.1375C12.7085 2.51282 12.1333 3.0251 12.1333 4.29234V8.36368C12.1333 9.6399 12.7085 10.1432 14.1375 10.1432H17.7685C19.1975 10.1522 19.7727 9.6399 19.7727 8.37267Z" fill="#2D2D2D"/>
<path d="M19.7727 18.4837V14.8527C19.7727 13.4237 19.1975 12.8485 17.7685 12.8485H14.1375C12.7085 12.8485 12.1333 13.4237 12.1333 14.8527V18.4837C12.1333 19.9127 12.7085 20.4879 14.1375 20.4879H17.7685C19.1975 20.4879 19.7727 19.9127 19.7727 18.4837Z" fill="#2D2D2D"/>
<path d="M9.43674 8.37267V4.29234C9.43674 3.0251 8.86154 2.51282 7.43253 2.51282H3.80158C2.37256 2.51282 1.79736 3.0251 1.79736 4.29234V8.36368C1.79736 9.6399 2.37256 10.1432 3.80158 10.1432H7.43253C8.86154 10.1522 9.43674 9.6399 9.43674 8.37267Z" fill="#2D2D2D"/>
<path d="M9.43674 18.4837V14.8527C9.43674 13.4237 8.86154 12.8485 7.43253 12.8485H3.80158C2.37256 12.8485 1.79736 13.4237 1.79736 14.8527V18.4837C1.79736 19.9127 2.37256 20.4879 3.80158 20.4879H7.43253C8.86154 20.4879 9.43674 19.9127 9.43674 18.4837Z" fill="#2D2D2D"/>
</svg>
