<svg width="22" height="22" viewBox="0 0 22 22" fill="none" xmlns="http://www.w3.org/2000/svg">
<path d="M17.8221 8.03433L13.7508 3.96299C12.897 3.10918 11.7196 2.65082 10.5153 2.71373L6.02154 2.92943C4.22404 3.01032 2.79503 4.43933 2.70516 6.22784L2.48946 10.7216C2.43553 11.9259 2.88491 13.1033 3.73872 13.9571L7.81006 18.0284C9.48173 19.7001 12.196 19.7001 13.8766 18.0284L17.8221 14.0829C19.5028 12.4202 19.5028 9.70601 17.8221 8.03433ZM8.53804 11.3417C7.10903 11.3417 5.94964 10.1823 5.94964 8.75333C5.94964 7.32432 7.10903 6.16493 8.53804 6.16493C9.96706 6.16493 11.1264 7.32432 11.1264 8.75333C11.1264 10.1823 9.96706 11.3417 8.53804 11.3417Z" fill="#2D2D2D"/>
</svg>
