<svg width="94" height="94" viewBox="0 0 94 94" fill="none" xmlns="http://www.w3.org/2000/svg">
<circle cx="47" cy="47" r="47" fill="#D9D9D9"/>
<path d="M47 47C54.4193 47 60.4286 40.9907 60.4286 33.5714C60.4286 26.1521 54.4193 20.1429 47 20.1429C39.5807 20.1429 33.5714 26.1521 33.5714 33.5714C33.5714 40.9907 39.5807 47 47 47ZM47 53.7143C38.0364 53.7143 20.1429 58.2129 20.1429 67.1429V70.5C20.1429 72.3464 21.6536 73.8571 23.5 73.8571H70.5C72.3464 73.8571 73.8571 72.3464 73.8571 70.5V67.1429C73.8571 58.2129 55.9636 53.7143 47 53.7143Z" fill="white"/>
</svg>
