<svg width="32" height="32" viewBox="0 0 32 32" fill="none" xmlns="http://www.w3.org/2000/svg">
<rect width="32" height="32" rx="10" fill="#E9E9E9"/>
<path d="M22 8H10V10.499L14.3575 13.7669C11.605 14.6738 10.105 17.6418 11.0125 20.3925C11.92 23.1432 14.875 24.6422 17.6425 23.7353C20.395 22.8284 21.895 19.8678 20.9875 17.1097C20.4625 15.5282 19.225 14.284 17.6425 13.7669L22 10.499V8ZM18.205 22.1164L16 20.8272L13.795 22.1164L14.38 19.6205L12.4375 17.9416L14.995 17.7243L16 15.3708L17.005 17.7243L19.5625 17.9416L17.62 19.6205L18.205 22.1164Z" fill="#2D2D2D"/>
</svg>
