<svg width="34" height="34" viewBox="0 0 34 34" fill="none" xmlns="http://www.w3.org/2000/svg">
<rect width="34" height="34" rx="5" fill="#424242"/>
<path fill-rule="evenodd" clip-rule="evenodd" d="M17.5 9.625C15.3611 9.625 15.0934 9.63393 14.2534 9.67225C13.415 9.71057 12.8422 9.84392 12.3413 10.0387C11.8163 10.2361 11.3402 10.5458 10.9464 10.9469C10.546 11.3402 10.236 11.8161 10.0382 12.3413C9.84445 12.8422 9.71057 13.4155 9.67225 14.2539C9.63445 15.0934 9.625 15.3606 9.625 17.5C9.625 19.6394 9.63393 19.9066 9.67225 20.7466C9.71057 21.585 9.84392 22.1578 10.0387 22.6586C10.2361 23.1836 10.5458 23.6598 10.9469 24.0536C11.3403 24.454 11.8161 24.764 12.3413 24.9618C12.8422 25.1561 13.415 25.2894 14.2534 25.3277C15.0934 25.3661 15.3611 25.375 17.5 25.375C19.6388 25.375 19.9066 25.3661 20.7466 25.3277C21.585 25.2894 22.1578 25.1561 22.6586 24.9613C23.1836 24.7639 23.6598 24.4541 24.0536 24.053C24.454 23.6598 24.764 23.1839 24.9618 22.6586C25.1561 22.1578 25.2894 21.585 25.3277 20.7466C25.3661 19.9066 25.375 19.6388 25.375 17.5C25.375 15.3611 25.3661 15.0934 25.3277 14.2534C25.2894 13.415 25.1561 12.8422 24.9613 12.3413C24.7636 11.8159 24.4536 11.3398 24.053 10.9464C23.6598 10.546 23.1839 10.236 22.6586 10.0382C22.1578 9.84445 21.5845 9.71057 20.7461 9.67225C19.9066 9.63445 19.6394 9.625 17.5 9.625ZM17.5 11.0441C19.6026 11.0441 19.852 11.0519 20.6825 11.0897C21.4501 11.1249 21.8669 11.2525 22.1447 11.3612C22.5122 11.5034 22.7747 11.6746 23.0503 11.9497C23.3259 12.2253 23.4965 12.4878 23.6388 12.8553C23.747 13.133 23.8751 13.5499 23.9102 14.3174C23.948 15.148 23.9559 15.3974 23.9559 17.5C23.9559 19.6026 23.948 19.852 23.9102 20.6825C23.8751 21.4501 23.7475 21.8669 23.6388 22.1447C23.5128 22.4867 23.3117 22.7962 23.0503 23.0503C22.7962 23.3117 22.4868 23.5129 22.1447 23.6388C21.8669 23.747 21.4501 23.8751 20.6825 23.9102C19.852 23.948 19.6031 23.9559 17.5 23.9559C15.3968 23.9559 15.148 23.948 14.3174 23.9102C13.5499 23.8751 13.133 23.7475 12.8553 23.6388C12.5133 23.5128 12.2038 23.3117 11.9497 23.0503C11.6883 22.7962 11.4872 22.4867 11.3612 22.1447C11.253 21.8669 11.1249 21.4501 11.0897 20.6825C11.0519 19.852 11.0441 19.6026 11.0441 17.5C11.0441 15.3974 11.0519 15.148 11.0897 14.3174C11.1249 13.5499 11.2525 13.133 11.3612 12.8553C11.5034 12.4878 11.6746 12.2253 11.9497 11.9497C12.2038 11.6883 12.5132 11.4872 12.8553 11.3612C13.133 11.253 13.5499 11.1249 14.3174 11.0897C15.148 11.0519 15.3974 11.0441 17.5 11.0441Z" fill="white"/>
<path fill-rule="evenodd" clip-rule="evenodd" d="M17.4999 20.1276C17.1548 20.1276 16.8131 20.0596 16.4943 19.9275C16.1756 19.7955 15.8859 19.6019 15.6419 19.3579C15.3979 19.114 15.2043 18.8243 15.0723 18.5055C14.9402 18.1867 14.8723 17.845 14.8723 17.4999C14.8723 17.1549 14.9402 16.8132 15.0723 16.4944C15.2043 16.1756 15.3979 15.8859 15.6419 15.6419C15.8859 15.3979 16.1756 15.2044 16.4943 15.0723C16.8131 14.9403 17.1548 14.8723 17.4999 14.8723C18.1968 14.8723 18.8651 15.1492 19.3579 15.6419C19.8507 16.1347 20.1275 16.803 20.1275 17.4999C20.1275 18.1968 19.8507 18.8652 19.3579 19.3579C18.8651 19.8507 18.1968 20.1276 17.4999 20.1276ZM17.4999 13.4522C16.4264 13.4522 15.3968 13.8786 14.6377 14.6377C13.8786 15.3968 13.4521 16.4264 13.4521 17.4999C13.4521 18.5735 13.8786 19.603 14.6377 20.3621C15.3968 21.1212 16.4264 21.5477 17.4999 21.5477C18.5734 21.5477 19.603 21.1212 20.3621 20.3621C21.1212 19.603 21.5476 18.5735 21.5476 17.4999C21.5476 16.4264 21.1212 15.3968 20.3621 14.6377C19.603 13.8786 18.5734 13.4522 17.4999 13.4522ZM22.7252 13.3787C22.7252 13.6324 22.6244 13.8758 22.445 14.0553C22.2655 14.2347 22.0222 14.3355 21.7684 14.3355C21.5146 14.3355 21.2713 14.2347 21.0918 14.0553C20.9124 13.8758 20.8116 13.6324 20.8116 13.3787C20.8116 13.1249 20.9124 12.8816 21.0918 12.7021C21.2713 12.5227 21.5146 12.4219 21.7684 12.4219C22.0222 12.4219 22.2655 12.5227 22.445 12.7021C22.6244 12.8816 22.7252 13.1249 22.7252 13.3787Z" fill="white"/>
</svg>
