<svg width="19" height="17" viewBox="0 0 19 17" fill="none" xmlns="http://www.w3.org/2000/svg">
<path d="M19 7.65C19 6.7065 18.2227 5.95 17.2727 5.95H11.8145L12.6436 2.0655C12.6609 1.9805 12.6695 1.887 12.6695 1.7935C12.6695 1.445 12.5227 1.122 12.2895 0.8925L11.3741 0L5.69136 5.593C5.37182 5.9075 5.18182 6.3325 5.18182 6.8V15.3C5.18182 15.7509 5.3638 16.1833 5.68772 16.5021C6.01165 16.8209 6.45099 17 6.90909 17H14.6818C15.3986 17 16.0118 16.575 16.2709 15.963L18.8791 9.9705C18.9568 9.775 19 9.571 19 9.35V7.65ZM0 17H3.45455V6.8H0V17Z" fill="#2D2D2D"/>
</svg>
