<svg width="22" height="23" viewBox="0 0 22 23" fill="none" xmlns="http://www.w3.org/2000/svg">
<path d="M18.5322 8.30947C17.5885 4.15724 13.9665 2.28784 10.7849 2.28784C10.7849 2.28784 10.7849 2.28784 10.7759 2.28784C7.60335 2.28784 3.9724 4.14825 3.02871 8.30048C1.97718 12.938 5.42933 16.2435 7.99976 18.715C8.95243 19.6318 10.4998 20.7122 10.7849 20.7122C11.0701 20.7122 12.6723 19.6318 13.616 18.715C16.1864 16.2435 19.5837 12.947 18.5322 8.30947ZM10.7849 12.8122C9.2211 12.8122 7.95387 11.545 7.95387 9.98114C7.95387 8.41732 9.2211 7.15008 10.7849 7.15008C12.3488 7.15008 13.616 8.41732 13.616 9.98114C13.616 11.545 12.3488 12.8122 10.7849 12.8122Z" fill="#2D2D2D"/>
</svg>
