<svg width="18" height="19" viewBox="0 0 18 19" fill="none" xmlns="http://www.w3.org/2000/svg">
<path d="M6.3 18.5C6.06131 18.5 5.83239 18.4052 5.6636 18.2364C5.49482 18.0676 5.4 17.8387 5.4 17.6V14.9H1.8C1.32261 14.9 0.864773 14.7104 0.527208 14.3728C0.189642 14.0352 0 13.5774 0 13.1V2.3C0 1.301 0.81 0.5 1.8 0.5H16.2C16.6774 0.5 17.1352 0.689642 17.4728 1.02721C17.8104 1.36477 18 1.82261 18 2.3V13.1C18 13.5774 17.8104 14.0352 17.4728 14.3728C17.1352 14.7104 16.6774 14.9 16.2 14.9H10.71L7.38 18.239C7.2 18.41 6.975 18.5 6.75 18.5H6.3ZM13.5 8.6V6.8H11.7V8.6H13.5ZM9.9 8.6V6.8H8.1V8.6H9.9ZM6.3 8.6V6.8H4.5V8.6H6.3Z" fill="#2D2D2D"/>
</svg>
