<svg width="22" height="23" viewBox="0 0 22 23" fill="none" xmlns="http://www.w3.org/2000/svg">
<path d="M17.8219 8.53433L13.7505 4.46299C12.8967 3.60918 11.7194 3.15082 10.515 3.21373L6.0213 3.42943C4.2238 3.51032 2.79479 4.93933 2.70491 6.72784L2.48921 11.2216C2.43529 12.4259 2.88466 13.6033 3.73847 14.4571L7.80981 18.5284C9.48149 20.2001 12.1957 20.2001 13.8764 18.5284L17.8219 14.5829C19.5026 12.9202 19.5026 10.206 17.8219 8.53433ZM8.5378 11.8417C7.10879 11.8417 5.9494 10.6823 5.9494 9.25333C5.9494 7.82432 7.10879 6.66493 8.5378 6.66493C9.96681 6.66493 11.1262 7.82432 11.1262 9.25333C11.1262 10.6823 9.96681 11.8417 8.5378 11.8417Z" fill="#2D2D2D"/>
</svg>
