<svg width="22" height="21" viewBox="0 0 22 21" fill="none" xmlns="http://www.w3.org/2000/svg">
<path d="M2.53451 11.1512C1.66389 10.8291 1.66389 9.59768 2.53451 9.27553L6.86785 7.67204C7.14157 7.57076 7.35738 7.35495 7.45867 7.08123L9.06215 2.74789C9.38431 1.87727 10.6157 1.87727 10.9379 2.74788L12.5413 7.08123C12.6426 7.35495 12.8584 7.57076 13.1321 7.67204L17.4655 9.27553C18.3361 9.59768 18.3361 10.8291 17.4655 11.1512L13.1321 12.7547C12.8584 12.856 12.6426 13.0718 12.5413 13.3455L10.9379 17.6789C10.6157 18.5495 9.38431 18.5495 9.06215 17.6789L7.45867 13.3455C7.35738 13.0718 7.14157 12.856 6.86785 12.7547L2.53451 11.1512Z" fill="#2D2D2D"/>
<path d="M14.0729 16.0575C13.7463 15.8262 13.8837 15.3134 14.2822 15.2764L16.2657 15.0922C16.3909 15.0806 16.5049 15.0148 16.5776 14.9121L17.7289 13.2865C17.9602 12.9599 18.4729 13.0973 18.51 13.4958L18.6942 15.4792C18.7058 15.6045 18.7716 15.7185 18.8743 15.7912L20.4999 16.9424C20.8265 17.1737 20.6891 17.6865 20.2906 17.7235L18.3071 17.9078C18.1819 17.9194 18.0679 17.9852 17.9952 18.0879L16.8439 19.7135C16.6126 20.0401 16.0999 19.9027 16.0628 19.5042L15.8786 17.5207C15.867 17.3954 15.8012 17.2815 15.6985 17.2088L14.0729 16.0575Z" fill="#2D2D2D"/>
</svg>
