<svg width="150" height="26" viewBox="0 0 150 26" fill="none" xmlns="http://www.w3.org/2000/svg">
<path d="M2.5345 13.9379C1.66389 13.6157 1.66389 12.3843 2.53451 12.0621L9.05758 9.64839C9.3313 9.54711 9.54711 9.3313 9.64839 9.05758L12.0621 2.5345C12.3843 1.66389 13.6157 1.66389 13.9379 2.53451L16.3516 9.05758C16.4529 9.3313 16.6687 9.54711 16.9424 9.64839L23.4655 12.0621C24.3361 12.3843 24.3361 13.6157 23.4655 13.9379L16.9424 16.3516C16.6687 16.4529 16.4529 16.6687 16.3516 16.9424L13.9379 23.4655C13.6157 24.3361 12.3843 24.3361 12.0621 23.4655L9.64839 16.9424C9.54711 16.6687 9.3313 16.4529 9.05758 16.3516L2.5345 13.9379Z" fill="#2D2D2D"/>
<path d="M33.5345 13.9379C32.6639 13.6157 32.6639 12.3843 33.5345 12.0621L40.0576 9.64839C40.3313 9.54711 40.5471 9.3313 40.6484 9.05758L43.0621 2.5345C43.3843 1.66389 44.6157 1.66389 44.9379 2.53451L47.3516 9.05758C47.4529 9.3313 47.6687 9.54711 47.9424 9.64839L54.4655 12.0621C55.3361 12.3843 55.3361 13.6157 54.4655 13.9379L47.9424 16.3516C47.6687 16.4529 47.4529 16.6687 47.3516 16.9424L44.9379 23.4655C44.6157 24.3361 43.3843 24.3361 43.0621 23.4655L40.6484 16.9424C40.5471 16.6687 40.3313 16.4529 40.0576 16.3516L33.5345 13.9379Z" fill="#2D2D2D"/>
<path d="M64.5345 13.8637C63.6639 13.5415 63.6639 12.3102 64.5345 11.988L71.0034 9.59431C71.2771 9.49302 71.4929 9.27721 71.5942 9.00349L73.9879 2.53464C74.31 1.66402 75.5414 1.66402 75.8636 2.53464L78.2573 9.00349C78.3585 9.27721 78.5744 9.49302 78.8481 9.59431L85.3169 11.988C86.1875 12.3102 86.1875 13.5415 85.3169 13.8637L78.8481 16.2574C78.5744 16.3587 78.3585 16.5745 78.2573 16.8482L75.8636 23.3171C75.5414 24.1877 74.31 24.1877 73.9879 23.3171L71.5942 16.8482C71.4929 16.5745 71.2771 16.3587 71.0034 16.2574L64.5345 13.8637Z" fill="#D1D1D1"/>
<mask id="mask0_1_986" style="mask-type:alpha" maskUnits="userSpaceOnUse" x="63" y="1" width="23" height="23">
<path d="M64.5345 13.8637C63.6639 13.5415 63.6639 12.3102 64.5345 11.988L71.0034 9.59431C71.2771 9.49302 71.4929 9.27721 71.5942 9.00349L73.9879 2.53464C74.31 1.66402 75.5414 1.66402 75.8636 2.53464L78.2573 9.00349C78.3585 9.27721 78.5744 9.49302 78.8481 9.59431L85.3169 11.988C86.1875 12.3102 86.1875 13.5415 85.3169 13.8637L78.8481 16.2574C78.5744 16.3587 78.3585 16.5745 78.2573 16.8482L75.8636 23.3171C75.5414 24.1877 74.31 24.1877 73.9879 23.3171L71.5942 16.8482C71.4929 16.5745 71.2771 16.3587 71.0034 16.2574L64.5345 13.8637Z" fill="white"/>
</mask>
<g mask="url(#mask0_1_986)">
<rect x="56.6143" width="18.3114" height="25.8514" fill="#2D2D2D"/>
</g>
<path d="M95.3861 13.9379C94.5154 13.6157 94.5154 12.3843 95.3861 12.0621L101.909 9.64839C102.183 9.54711 102.399 9.3313 102.5 9.05758L104.914 2.5345C105.236 1.66389 106.467 1.66389 106.789 2.53451L109.203 9.05758C109.304 9.3313 109.52 9.54711 109.794 9.64839L116.317 12.0621C117.188 12.3843 117.188 13.6157 116.317 13.9379L109.794 16.3516C109.52 16.4529 109.304 16.6687 109.203 16.9424L106.789 23.4655C106.467 24.3361 105.236 24.3361 104.914 23.4655L102.5 16.9424C102.399 16.6687 102.183 16.4529 101.909 16.3516L95.3861 13.9379Z" fill="#D1D1D1"/>
<path d="M126.386 13.9379C125.515 13.6157 125.515 12.3843 126.386 12.0621L132.909 9.64839C133.183 9.54711 133.399 9.3313 133.5 9.05758L135.914 2.5345C136.236 1.66389 137.467 1.66389 137.789 2.53451L140.203 9.05758C140.304 9.3313 140.52 9.54711 140.794 9.64839L147.317 12.0621C148.188 12.3843 148.188 13.6157 147.317 13.9379L140.794 16.3516C140.52 16.4529 140.304 16.6687 140.203 16.9424L137.789 23.4655C137.467 24.3361 136.236 24.3361 135.914 23.4655L133.5 16.9424C133.399 16.6687 133.183 16.4529 132.909 16.3516L126.386 13.9379Z" fill="#D1D1D1"/>
</svg>
