<svg width="22" height="23" viewBox="0 0 22 23" fill="none" xmlns="http://www.w3.org/2000/svg">
<path d="M19.7727 8.37255V4.29222C19.7727 3.02498 19.1975 2.5127 17.7685 2.5127H14.1375C12.7085 2.5127 12.1333 3.02498 12.1333 4.29222V8.36356C12.1333 9.63978 12.7085 10.1431 14.1375 10.1431H17.7685C19.1975 10.1521 19.7727 9.63978 19.7727 8.37255Z" fill="#2D2D2D"/>
<path d="M19.7727 18.4833V14.8524C19.7727 13.4233 19.1975 12.8481 17.7685 12.8481H14.1375C12.7085 12.8481 12.1333 13.4233 12.1333 14.8524V18.4833C12.1333 19.9123 12.7085 20.4875 14.1375 20.4875H17.7685C19.1975 20.4875 19.7727 19.9123 19.7727 18.4833Z" fill="#2D2D2D"/>
<path d="M9.43674 8.37255V4.29222C9.43674 3.02498 8.86154 2.5127 7.43253 2.5127H3.80158C2.37256 2.5127 1.79736 3.02498 1.79736 4.29222V8.36356C1.79736 9.63978 2.37256 10.1431 3.80158 10.1431H7.43253C8.86154 10.1521 9.43674 9.63978 9.43674 8.37255Z" fill="#2D2D2D"/>
<path d="M9.43674 18.4833V14.8524C9.43674 13.4233 8.86154 12.8481 7.43253 12.8481H3.80158C2.37256 12.8481 1.79736 13.4233 1.79736 14.8524V18.4833C1.79736 19.9123 2.37256 20.4875 3.80158 20.4875H7.43253C8.86154 20.4875 9.43674 19.9123 9.43674 18.4833Z" fill="#2D2D2D"/>
</svg>
