<svg width="271" height="43" viewBox="0 0 271 43" fill="none" xmlns="http://www.w3.org/2000/svg">
<rect width="271" height="43" rx="21.5" fill="#2D2D2D"/>
<path d="M89.507 20.149C89.507 18.485 90.885 17.328 92.887 17.328C94.811 17.328 96.033 18.394 96.085 20.11H94.421C94.382 19.291 93.797 18.81 92.861 18.81C91.834 18.81 91.171 19.304 91.171 20.097C91.171 20.773 91.535 21.15 92.328 21.332L93.823 21.657C95.448 22.008 96.241 22.84 96.241 24.257C96.241 26.025 94.863 27.169 92.77 27.169C90.742 27.169 89.416 26.09 89.377 24.387H91.041C91.054 25.193 91.704 25.674 92.77 25.674C93.875 25.674 94.577 25.193 94.577 24.4C94.577 23.763 94.252 23.386 93.472 23.217L91.964 22.879C90.352 22.528 89.507 21.605 89.507 20.149ZM103.648 27H97.7464V17.497H103.648V19.031H99.4104V21.475H103.206V22.944H99.4104V25.466H103.648V27ZM106.271 27H104.542L107.974 17.497H109.677L113.109 27H111.354L110.587 24.803H107.038L106.271 27ZM108.611 20.331L107.532 23.399H110.106L109.014 20.331C108.936 20.084 108.845 19.798 108.819 19.603C108.78 19.785 108.702 20.071 108.611 20.331ZM115.965 27H114.301V17.497H117.928C120.086 17.497 121.347 18.589 121.347 20.461C121.347 21.735 120.749 22.645 119.631 23.1L121.438 27H119.618L118.006 23.451H115.965V27ZM115.965 18.979V21.982H117.928C118.981 21.982 119.605 21.423 119.605 20.461C119.605 19.512 118.981 18.979 117.928 18.979H115.965ZM127.002 27.156C124.233 27.156 122.439 25.232 122.439 22.255C122.439 19.304 124.298 17.341 127.08 17.341C129.329 17.341 131.006 18.654 131.331 20.695H129.576C129.251 19.59 128.302 18.94 127.041 18.94C125.286 18.94 124.181 20.214 124.181 22.242C124.181 24.257 125.299 25.557 127.041 25.557C128.328 25.557 129.316 24.881 129.628 23.828H131.357C130.993 25.83 129.251 27.156 127.002 27.156ZM134.513 27H132.849V17.497H134.513V21.423H138.725V17.497H140.389V27H138.725V22.97H134.513V27ZM146.001 27V17.497H149.784C151.656 17.497 152.8 18.472 152.8 20.058C152.8 21.111 152.332 21.865 151.435 22.242C152.436 22.567 152.943 23.321 152.943 24.426C152.943 26.051 151.812 27 149.849 27H146.001ZM149.641 18.966H147.665V21.553H149.68C150.59 21.553 151.097 21.072 151.097 20.227C151.097 19.408 150.577 18.966 149.641 18.966ZM149.784 22.957H147.665V25.531H149.784C150.72 25.531 151.24 25.076 151.24 24.218C151.24 23.412 150.707 22.957 149.784 22.957ZM156.133 27H154.469V17.497H158.096C160.254 17.497 161.515 18.589 161.515 20.461C161.515 21.735 160.917 22.645 159.799 23.1L161.606 27H159.786L158.174 23.451H156.133V27ZM156.133 18.979V21.982H158.096C159.149 21.982 159.773 21.423 159.773 20.461C159.773 19.512 159.149 18.979 158.096 18.979H156.133ZM163.997 27H162.268L165.7 17.497H167.403L170.835 27H169.08L168.313 24.803H164.764L163.997 27ZM166.337 20.331L165.258 23.399H167.832L166.74 20.331C166.662 20.084 166.571 19.798 166.545 19.603C166.506 19.785 166.428 20.071 166.337 20.331ZM173.665 27H172.027V17.497H173.678L178.137 24.231V17.497H179.775V27H178.137L173.665 20.266V27ZM185.297 27H181.878V17.497H185.206C188.014 17.497 189.951 19.434 189.951 22.268C189.951 25.063 188.053 27 185.297 27ZM185.05 19.031H183.542V25.466H185.141C187.039 25.466 188.196 24.244 188.196 22.268C188.196 20.253 187.013 19.031 185.05 19.031Z" fill="white"/>
<rect x="8" y="8" width="27" height="27" rx="13.5" fill="white"/>
<rect x="14.5099" y="19.4915" width="7.04529" height="7.04529" rx="3.52264" transform="rotate(-45 14.5099 19.4915)" stroke="#2D2D2D" stroke-width="1.5"/>
<path d="M25.9995 27.0602C26.2924 27.3531 26.7673 27.3531 27.0602 27.0602C27.3531 26.7673 27.3531 26.2924 27.0602 25.9995L25.9995 27.0602ZM21.9824 23.043L25.9995 27.0602L27.0602 25.9995L23.043 21.9824L21.9824 23.043Z" fill="#2D2D2D"/>
</svg>
