<svg width="16" height="17" viewBox="0 0 16 17" fill="none" xmlns="http://www.w3.org/2000/svg">
<path d="M13.3333 12.0221C12.6578 12.0221 12.0533 12.2783 11.5911 12.6796L5.25333 9.13611C5.29778 8.93973 5.33333 8.74335 5.33333 8.53842C5.33333 8.3335 5.29778 8.13712 5.25333 7.94073L11.52 4.43144C12 4.85836 12.6311 5.12305 13.3333 5.12305C14.0406 5.12305 14.7189 4.85318 15.219 4.3728C15.719 3.89242 16 3.24089 16 2.56153C16 1.88217 15.719 1.23063 15.219 0.750254C14.7189 0.269874 14.0406 0 13.3333 0C12.6261 0 11.9478 0.269874 11.4477 0.750254C10.9476 1.23063 10.6667 1.88217 10.6667 2.56153C10.6667 2.76645 10.7022 2.96283 10.7467 3.15922L4.48 6.66851C4 6.24159 3.36889 5.9769 2.66667 5.9769C1.95942 5.9769 1.28115 6.24677 0.781049 6.72715C0.280952 7.20753 0 7.85906 0 8.53842C0 9.21778 0.280952 9.86932 0.781049 10.3497C1.28115 10.8301 1.95942 11.0999 2.66667 11.0999C3.36889 11.0999 4 10.8353 4.48 10.4083L10.8089 13.9518C10.7644 14.1311 10.7378 14.3189 10.7378 14.5153C10.7378 15.89 11.9022 17 13.3333 17C14.7644 17 15.9289 15.89 15.9289 14.5153C15.9289 13.8541 15.6554 13.2199 15.1687 12.7523C14.6819 12.2848 14.0217 12.0221 13.3333 12.0221Z" fill="#2D2D2D"/>
</svg>
