<svg width="21" height="21" viewBox="0 0 21 21" fill="none" xmlns="http://www.w3.org/2000/svg">
<path d="M1.53451 11.4379C0.663888 11.1157 0.663888 9.88431 1.53451 9.56215L6.96271 7.55353C7.23643 7.45224 7.45224 7.23643 7.55353 6.96271L9.56215 1.53451C9.88431 0.663888 11.1157 0.663888 11.4379 1.53451L13.4465 6.96271C13.5478 7.23643 13.7636 7.45224 14.0373 7.55353L19.4655 9.56215C20.3361 9.88431 20.3361 11.1157 19.4655 11.4379L14.0373 13.4465C13.7636 13.5478 13.5478 13.7636 13.4465 14.0373L11.4379 19.4655C11.1157 20.3361 9.88431 20.3361 9.56215 19.4655L7.55353 14.0373C7.45224 13.7636 7.23643 13.5478 6.96271 13.4465L1.53451 11.4379Z" fill="#2D2D2D"/>
</svg>
