<svg width="34" height="34" viewBox="0 0 34 34" fill="none" xmlns="http://www.w3.org/2000/svg">
<rect width="34" height="34" rx="5" fill="#424242"/>
<path d="M23.4584 13.9301C23.4691 14.0844 23.4691 14.2387 23.4691 14.3944C23.4691 19.1385 19.8575 24.61 13.2535 24.61V24.6072C11.3026 24.61 9.39229 24.0512 7.75 22.9976C8.03367 23.0317 8.31876 23.0488 8.60456 23.0495C10.2213 23.0509 11.7917 22.5084 13.0636 21.5096C11.5273 21.4804 10.18 20.4787 9.70937 19.0163C10.2476 19.1201 10.8021 19.0987 11.3303 18.9544C9.65534 18.616 8.45028 17.1443 8.45028 15.4352C8.45028 15.4196 8.45028 15.4046 8.45028 15.3897C8.94937 15.6677 9.50818 15.822 10.0798 15.839C8.50218 14.7847 8.01589 12.686 8.96857 11.0451C10.7914 13.2881 13.481 14.6517 16.3681 14.7961C16.0788 13.5491 16.4741 12.2423 17.4068 11.3657C18.8529 10.0064 21.1272 10.0761 22.4865 11.5214C23.2906 11.3629 24.0613 11.0679 24.7666 10.6498C24.4985 11.4809 23.9376 12.1869 23.1882 12.6355C23.8999 12.5516 24.5952 12.3611 25.25 12.0703C24.768 12.7926 24.1608 13.4218 23.4584 13.9301Z" fill="white"/>
</svg>
