<svg width="20" height="20" viewBox="0 0 20 20" fill="none" xmlns="http://www.w3.org/2000/svg">
<path d="M12.6704 10.9678C9.63906 10.9678 7.17041 13.0678 7.17041 15.6553C7.17041 15.8303 7.30352 15.9678 7.47294 15.9678H17.8679C18.0373 15.9678 18.1704 15.8303 18.1704 15.6553C18.1704 13.0678 15.7018 10.9678 12.6704 10.9678Z" fill="#2D2D2D"/>
<path d="M6.6368 10.0002C8.01135 10.0002 9.12564 8.88586 9.12564 7.51131C9.12564 6.13676 8.01135 5.02246 6.6368 5.02246C5.26224 5.02246 4.14795 6.13676 4.14795 7.51131C4.14795 8.88586 5.26224 10.0002 6.6368 10.0002Z" fill="#2D2D2D"/>
<path d="M12.6593 10.0002C14.0338 10.0002 15.1481 8.88586 15.1481 7.51131C15.1481 6.13676 14.0338 5.02246 12.6593 5.02246C11.2847 5.02246 10.1704 6.13676 10.1704 7.51131C10.1704 8.88586 11.2847 10.0002 12.6593 10.0002Z" fill="#2D2D2D"/>
<path d="M6.67041 10.4678C3.44115 10.4678 0.67041 12.7194 0.67041 15.6553C0.67041 16.091 1.01222 16.4678 1.47294 16.4678H11.8679C12.3286 16.4678 12.6704 16.091 12.6704 15.6553C12.6704 12.7194 9.89967 10.4678 6.67041 10.4678Z" fill="#2D2D2D" stroke="white"/>
</svg>
