<svg width="14" height="14" viewBox="0 0 14 14" fill="none" xmlns="http://www.w3.org/2000/svg">
<path d="M13.3368 3.14373C13.0808 3.40814 12.8323 3.66477 12.8247 3.9214C12.8022 4.17025 13.0582 4.42688 13.2992 4.66796C13.6607 5.0568 14.0146 5.40675 13.9995 5.78781C13.9845 6.16886 13.6004 6.56548 13.2163 6.95431L10.1062 10.1739L9.03682 9.06957L12.2374 5.77225L11.5144 5.02569L10.4451 6.1222L7.62105 3.20594L10.5128 0.227468C10.8065 -0.0758228 11.296 -0.0758228 11.5747 0.227468L13.3368 2.04722C13.6305 2.33495 13.6305 2.84044 13.3368 3.14373ZM0 11.0837L7.19933 3.64144L10.0233 6.5577L2.82401 14H0V11.0837Z" fill="#505050"/>
</svg>
