<svg width="34" height="34" viewBox="0 0 34 34" fill="none" xmlns="http://www.w3.org/2000/svg">
<rect width="34" height="34" rx="5" fill="#424242"/>
<path d="M17.0002 26.1666C22.0628 26.1666 26.1668 22.0625 26.1668 16.9999C26.1668 11.9373 22.0628 7.83325 17.0002 7.83325C11.9376 7.83325 7.8335 11.9373 7.8335 16.9999C7.8335 22.0625 11.9376 26.1666 17.0002 26.1666Z" stroke="white" stroke-width="1.5" stroke-linecap="round" stroke-linejoin="round"/>
<path d="M13.3336 8.75H14.2503C12.4628 14.1033 12.4628 19.8967 14.2503 25.25H13.3336" stroke="white" stroke-width="1.5" stroke-linecap="round" stroke-linejoin="round"/>
<path d="M19.75 8.75C21.5375 14.1033 21.5375 19.8967 19.75 25.25" stroke="white" stroke-width="1.5" stroke-linecap="round" stroke-linejoin="round"/>
<path d="M8.75 20.6667V19.75C14.1033 21.5375 19.8967 21.5375 25.25 19.75V20.6667" stroke="white" stroke-width="1.5" stroke-linecap="round" stroke-linejoin="round"/>
<path d="M8.75 14.25C14.1033 12.4625 19.8967 12.4625 25.25 14.25" stroke="white" stroke-width="1.5" stroke-linecap="round" stroke-linejoin="round"/>
</svg>
